<?xml version="1.0" encoding="UTF-8"?>
<svg id="Layer_1" data-name="Layer 1" xmlns="http://www.w3.org/2000/svg" viewBox="0 0 342.52 326.48">
  <defs>
    <style>
      .cls-1 {
        fill: none;
      }

      .cls-2 {
        fill: #408f71;
      }

      .cls-3 {
        fill: #b58c2e;
      }

      .cls-4 {
        fill: #c89d3b;
      }
    </style>
  </defs>
  <g>
    <path class="cls-4" d="m261.52,49.06c13.39,3.07,26.53,6.82,39.36,11.2,4-12.09,7.46-24.43,10.3-37.01-23.76-8.54-48.57-14.87-74.19-18.76C217.41,1.52,191.57,0,171.16,0v.12c-23.95,0-41.61,2.12-64.39,6.19-25.82,4.61-50.78,11.69-74.61,21.03,5.83,24.63,13.95,48.36,24.12,70.97,1.57,3.5,3.21,6.96,4.88,10.4,3.97,8.17,8.21,16.19,12.71,24.04,1.88,3.28,3.79,6.53,5.76,9.75,12.39,20.24,26.55,39.27,42.25,56.91,15.07,16.93,31.55,32.56,49.29,46.7v-.12s.03.03.05.04c17.92-14.28,34.57-30.08,49.76-47.2,15.58-17.56,29.61-36.51,41.92-56.65,1.96-3.2,3.87-6.43,5.74-9.69,4.5-7.86,8.73-15.88,12.7-24.06,1.67-3.44,3.28-6.92,4.86-10.41,4.33-9.64,8.3-19.47,11.87-29.5-12.85-4.28-25.99-7.93-39.39-10.89-3.61,10.42-7.65,20.65-12.08,30.66-1.62,3.67-3.3,7.31-5.03,10.91-4.14,8.63-8.58,17.08-13.32,25.35-1.98,3.46-4,6.89-6.08,10.28-8.11,13.24-16.99,25.96-26.55,38.12-5.8,7.37-11.85,14.54-18.15,21.48-1.96,2.16-4.22,4.17-6.3,6.25v.12c-2.17-2.36-3.99-4.45-6.12-6.8-6.06-6.7-11.9-13.62-17.5-20.73-9.61-12.2-18.53-24.98-26.68-38.27-2.09-3.4-4.12-6.84-6.1-10.31-4.73-8.27-9.18-16.72-13.31-25.35-1.73-3.61-3.41-7.25-5.03-10.91-4.33-9.78-8.29-19.77-11.84-29.95-.99-2.83-1.94-5.68-2.86-8.54,3.16-.75,6.34-1.47,9.53-2.14,8.82-1.87,17.74-3.44,26.76-4.71,18.26-2.58,34.18-4.01,53.15-4.01v-.12c17.5,0,37.47,1.24,54.37,3.44,8.61,1.12,17.15,2.51,25.58,4.17,3.52.69,10.45,2.42,10.41,2.51Z"/>
    <path class="cls-4" d="m171.16,81.19c12.43,0,25.1.57,37.24,1.69,9.24.85,18.38,2.02,27.43,3.49,4.54-10.18,8.69-20.58,12.38-31.19-8.56-1.62-17.22-2.95-25.96-4.02-15.85-1.93-34.72-2.94-51.09-2.94v.12c-17.84,0-32.66,1.19-49.87,3.47-9.14,1.21-18.19,2.73-27.13,4.55,3.61,10.3,7.66,20.39,12.08,30.28,1.66,3.71,3.36,7.38,5.13,11.03,4.23,8.74,8.76,17.29,13.6,25.66,10.29-1.2,20.7-2.02,31.21-2.42,5.09-.19,9.85-.3,14.99-.3v-.12c5.23,0,10.81.12,15.99.32-2.34,3.68-4.73,7.32-7.18,10.91-2.7,3.96-5.88,7.72-8.81,11.52v.12c-2.79-3.98-5.1-7.56-7.8-11.52-10.83.22-21.56.87-32.16,1.95,6.95,11.21,14.45,22.05,22.45,32.48,5.55,7.23,11.49,14.31,17.51,21.14v-.12c6.25-7.09,12.09-14.44,17.83-21.96,7.79-10.22,15.1-20.82,21.89-31.78,2.13-3.45,4.2-6.94,6.23-10.45,4.84-8.37,9.37-16.94,13.6-25.68-9.26-1.39-18.63-2.45-28.09-3.19-10.26-.79-20.99-1.22-31.45-1.22v.12c-10.37,0-20.28.41-30.45,1.19-1.99-3.75-3.92-7.53-5.79-11.35,12.05-1.1,23.9-1.67,36.24-1.67v-.12Z"/>
  </g>
  <path class="cls-1" d="m173.58,48.37c-27.31,0-53.98,2.76-79.74,8.02,17.09,48.71,43.39,93.08,76.84,131.01,33.7-38.2,60.13-82.95,77.21-132.07-24.07-4.56-48.91-6.95-74.31-6.95Z"/>
  <g>
    <path class="cls-3" d="m171.21,246.15c17.92-14.28,34.57-30.08,49.76-47.2,15.58-17.56,29.61-36.51,41.92-56.65,1.96-3.2,3.87-6.43,5.74-9.69,4.5-7.86,8.73-15.88,12.7-24.06,1.67-3.44,3.28-6.92,4.86-10.41,4.33-9.64,8.3-19.47,11.87-29.5-12.85-4.28-25.99-7.93-39.39-10.89-3.61,10.42-7.65,20.65-12.08,30.66-1.62,3.67-3.3,7.31-5.03,10.91-4.14,8.63-8.58,17.08-13.32,25.35-1.98,3.46-4,6.89-6.08,10.28-8.11,13.24-16.99,25.96-26.55,38.12-5.8,7.37-11.85,14.54-18.15,21.48-1.96,2.16-4.22,4.17-6.3,6.25v45.32s.03.03.05.04Z"/>
    <path class="cls-3" d="m225.52,42.49c8.61,1.12,17.15,2.51,25.58,4.17,3.52.69,10.45,2.42,10.41,2.51,13.39,3.07,26.53,6.82,39.36,11.2,4-12.09,7.46-24.43,10.3-37.01-23.76-8.54-48.57-14.87-74.19-18.76C217.41,1.64,191.57.12,171.16.12v38.94c17.5,0,37.47,1.24,54.37,3.44Z"/>
    <path class="cls-3" d="m208.4,83.01c9.24.85,18.38,2.02,27.43,3.49,4.54-10.18,8.69-20.58,12.38-31.19-8.56-1.62-17.22-2.95-25.96-4.02-15.85-1.93-34.72-2.94-51.09-2.94v32.96c12.43,0,25.1.57,37.24,1.69Z"/>
    <path class="cls-3" d="m187.15,120.94c-2.34,3.68-4.73,7.32-7.18,10.91-2.7,3.96-5.88,7.72-8.81,11.52v44.05c6.25-7.09,12.09-14.44,17.83-21.96,7.79-10.22,15.1-20.82,21.89-31.78,2.13-3.45,4.2-6.94,6.23-10.45,4.84-8.37,9.37-16.94,13.6-25.68-9.26-1.39-18.63-2.45-28.09-3.19-10.26-.79-20.99-1.22-31.45-1.22v27.48c5.23,0,10.81.12,15.99.32Z"/>
  </g>
  <g>
    <path class="cls-4" d="m147.54,173.26c-9.61-12.2-18.53-24.98-26.68-38.27-2.09-3.4-4.12-6.84-6.1-10.31-4.73-8.27-9.18-16.72-13.31-25.35-1.73-3.61-3.41-7.25-5.03-10.91-4.33-9.78-8.29-19.77-11.84-29.95-.99-2.83-1.94-5.68-2.86-8.54,3.16-.75,6.34-1.47,9.53-2.14,8.82-1.87,17.74-3.44,26.76-4.71,18.26-2.58,34.18-4.01,53.15-4.01V.12c-23.95,0-41.61,2.12-64.39,6.19-25.82,4.61-50.78,11.69-74.61,21.03,5.83,24.63,13.95,48.36,24.12,70.97,1.57,3.5,3.21,6.96,4.88,10.4,3.97,8.17,8.21,16.19,12.71,24.04,1.88,3.28,3.79,6.53,5.76,9.75,12.39,20.24,26.55,39.27,42.25,56.91,15.07,16.93,31.55,32.56,49.29,46.7v-45.32c-2.17-2.36-3.99-4.45-6.12-6.8-6.06-6.7-11.9-13.62-17.5-20.73Z"/>
    <path class="cls-4" d="m163.36,131.86c-10.83.22-21.56.87-32.16,1.95,6.95,11.21,14.45,22.05,22.45,32.48,5.55,7.23,11.49,14.31,17.51,21.14v-44.05c-2.79-3.98-5.1-7.56-7.8-11.52Z"/>
    <path class="cls-4" d="m94.15,56.38c3.61,10.3,7.66,20.39,12.08,30.28,1.66,3.71,3.36,7.38,5.13,11.03,4.23,8.74,8.76,17.29,13.6,25.66,10.29-1.2,20.7-2.02,31.21-2.42,5.09-.19,9.85-.3,14.99-.3v-27.48c-10.37,0-20.28.41-30.45,1.19-1.99-3.75-3.92-7.53-5.79-11.35,12.05-1.1,23.9-1.67,36.24-1.67v-32.96c-17.84,0-32.66,1.19-49.87,3.47-9.14,1.21-18.19,2.73-27.13,4.55Z"/>
  </g>
  <g>
    <polyline class="cls-2" points="92.49 176.71 64.33 184.88 65 185.15 23 168.81 75.09 151.45"/>
    <polygon class="cls-2" points="96.88 182.47 54.88 195.44 0 259.44 98.38 240.81 123.84 213.73 96.88 182.47"/>
    <path class="cls-2" d="m213.67,219.1l-.06.05c-13.11,13.19-42.41,36.78-42.41,36.78,0,0-28.96-23.59-42.07-36.78l-.06-.05-18.49,25.88,60.68,81.49,60.87-81.49-18.49-25.88Z"/>
    <polyline class="cls-2" points="250.03 176.71 278.2 184.88 277.52 185.15 319.52 168.81 267.43 151.45"/>
    <polygon class="cls-2" points="245.65 182.47 287.65 195.44 342.52 259.44 244.15 240.81 218.68 213.73 245.65 182.47"/>
  </g>
</svg>