<?xml version="1.0" encoding="utf-8"?>
<svg version="1.1" id="Layer_1" xmlns="http://www.w3.org/2000/svg" x="0px" y="0px" viewBox="5.341 19.939 613.485 132.107" style="enable-background:new 0 0 632 167;">
  <style type="text/css">
	.st0{fill:#8B4D98;}
	.st1{fill:#54274E;}
</style>
  <path class="st0" d="M 233.796 69.569 L 233.796 119.069 L 241.796 119.069 L 249.796 119.069 L 249.796 69.569 L 249.796 20.069 L 241.796 20.069 L 233.796 20.069 L 233.796 69.569 Z"/>
  <path class="st1" d="M 5.996 69.769 L 6.296 118.569 L 17.596 118.869 L 28.796 119.169 L 28.796 70.069 L 28.796 21.069 L 17.296 21.069 L 5.796 21.069 L 5.996 69.769 Z"/>
  <path class="st1" d="M 45.496 31.769 L 45.696 42.569 L 82.196 42.869 L 118.796 43.069 L 118.796 32.069 L 118.796 21.069 L 82.096 21.069 L 45.296 21.069 L 45.496 31.769 Z"/>
  <path class="st1" d="M 130.796 32.069 L 130.796 43.069 L 143.796 43.069 L 156.796 43.069 L 156.796 81.069 L 156.796 119.069 L 167.796 119.069 L 178.796 119.069 L 178.796 81.069 L 178.796 43.069 L 191.796 43.069 L 204.796 43.069 L 204.796 32.069 L 204.796 21.069 L 167.796 21.069 L 130.796 21.069 L 130.796 32.069 Z"/>
  <path class="st0" d="M 293.296 52.969 C 290.996 53.969 287.996 56.169 286.596 57.969 C 285.096 59.669 283.696 61.069 283.396 61.069 C 283.096 61.069 282.796 59.069 282.796 56.569 L 282.796 52.069 L 275.296 52.069 L 267.796 52.069 L 267.796 85.569 L 267.796 119.069 L 275.796 119.069 L 283.796 119.069 L 283.796 96.669 L 283.796 74.269 L 287.796 70.669 C 289.996 68.769 292.896 66.869 294.296 66.469 C 298.796 65.369 303.996 66.769 307.296 70.069 L 310.296 73.069 L 310.596 96.069 L 310.896 119.069 L 319.396 119.069 L 327.796 119.069 L 327.796 96.569 C 327.796 71.569 326.996 66.069 322.696 60.069 C 316.796 51.969 302.896 48.569 293.296 52.969 Z"/>
  <path class="st0" d="M 358.796 51.969 C 338.796 58.069 334.596 78.269 351.496 87.369 C 354.296 88.869 360.896 91.169 366.196 92.469 C 376.796 95.069 378.796 96.269 378.796 99.569 C 378.796 103.169 375.396 105.369 368.896 105.869 C 361.896 106.369 357.496 105.069 350.596 100.469 C 345.896 97.269 345.396 97.169 344.296 98.769 C 343.596 99.769 341.596 102.369 339.896 104.469 C 336.896 108.269 336.796 108.469 338.496 110.369 C 346.496 119.069 367.796 123.069 380.896 118.169 C 386.796 115.969 392.996 110.369 394.696 105.769 C 396.296 101.569 395.996 96.069 393.796 91.369 C 390.996 85.069 384.696 81.769 369.496 78.469 C 364.696 77.469 360.596 75.969 358.996 74.569 C 356.496 72.369 356.496 72.269 358.096 69.769 C 361.596 64.369 372.696 63.669 381.496 68.269 L 386.296 70.669 L 390.496 64.669 L 394.696 58.669 L 391.996 56.869 C 384.896 52.169 366.996 49.469 358.796 51.969 Z"/>
  <path class="st0" d="M 432.296 52.969 C 430.096 53.969 427.196 55.969 425.896 57.469 C 422.596 60.969 421.796 60.769 421.796 56.069 L 421.796 52.069 L 414.296 52.069 L 406.796 52.069 L 406.796 101.569 L 406.796 151.069 L 415.296 151.069 L 423.796 151.069 L 423.796 132.069 L 423.796 113.069 L 428.096 116.069 C 435.896 121.669 448.096 121.769 457.896 116.469 C 464.096 113.069 468.296 108.369 471.696 101.069 C 473.996 96.269 474.296 94.269 474.296 85.569 C 474.296 76.769 473.996 74.869 471.596 69.869 C 468.096 62.369 461.196 55.769 454.196 53.169 C 447.196 50.469 437.796 50.469 432.296 52.969 Z M 447.596 67.969 C 454.896 71.769 457.796 76.669 457.796 85.569 C 457.796 92.069 456.596 95.669 452.996 99.469 C 445.996 106.869 434.596 107.069 427.096 99.769 L 423.796 96.669 L 423.796 85.569 C 423.796 74.769 423.896 74.369 426.596 71.869 C 432.896 65.869 440.696 64.469 447.596 67.969 Z"/>
  <path class="st0" d="M 503.396 52.769 C 496.896 55.069 488.596 62.769 485.096 69.869 C 482.596 74.869 482.296 76.669 482.296 85.069 C 482.296 93.169 482.696 95.369 484.896 100.069 C 488.396 107.669 492.596 112.169 499.596 115.869 C 506.896 119.769 515.196 121.169 523.796 119.969 C 529.996 119.069 538.196 115.869 542.196 112.769 C 544.296 111.269 544.096 110.869 536.796 99.969 C 536.496 99.469 533.596 100.469 530.396 102.069 C 519.196 107.769 506.196 105.369 500.896 96.669 C 499.696 94.869 498.796 93.069 498.796 92.669 C 498.796 92.369 509.896 91.969 523.596 91.869 L 548.296 91.569 L 548.596 87.269 C 549.596 73.869 542.096 60.469 530.296 54.269 C 523.796 50.969 510.896 50.169 503.396 52.769 Z M 524.596 68.069 C 528.096 70.169 531.796 75.469 531.796 78.269 C 531.796 79.869 530.296 80.069 515.296 80.069 C 500.296 80.069 498.796 79.869 498.796 78.269 C 498.796 75.469 502.496 70.169 505.996 68.069 C 510.496 65.369 520.096 65.369 524.596 68.069 Z"/>
  <path class="st0" d="M 579.096 52.469 C 573.096 54.369 568.496 57.469 563.396 63.169 C 555.496 71.969 553.096 83.969 556.796 96.169 C 558.696 102.469 559.796 104.269 565.096 109.569 C 572.896 117.369 579.796 120.269 590.796 120.269 C 600.196 120.269 607.996 117.469 613.996 112.069 L 618.296 108.269 L 612.796 102.669 L 607.396 97.069 L 604.796 99.469 C 600.796 103.169 596.296 105.069 591.196 105.069 C 574.096 105.069 565.696 85.369 577.096 72.369 C 578.896 70.369 581.696 68.169 583.496 67.469 C 589.996 64.769 599.296 66.369 604.396 71.169 L 606.596 73.269 L 612.096 68.369 C 615.096 65.769 617.496 63.069 617.396 62.569 C 616.896 60.569 607.396 54.269 602.596 52.669 C 596.596 50.769 584.996 50.669 579.096 52.469 Z"/>
  <path class="st0" d="M 45.796 70.069 L 45.796 81.069 L 82.296 81.069 L 118.796 81.069 L 118.796 70.069 L 118.796 59.069 L 82.296 59.069 L 45.796 59.069 L 45.796 70.069 Z"/>
  <path class="st0" d="M 45.796 108.069 L 45.796 119.069 L 82.296 119.069 L 118.796 119.069 L 118.796 108.069 L 118.796 97.069 L 82.296 97.069 L 45.796 97.069 L 45.796 108.069 Z"/>
</svg>
