<?xml version="1.0" encoding="utf-8"?>
<svg version="1.1" id="Layer_1" xmlns="http://www.w3.org/2000/svg" x="0px" y="0px" viewBox="0 0 195.516 71.643" style="enable-background:new 0 0 195 195;">
  <style type="text/css">
	.st0{fill:#304996;}
</style>
  <g transform="matrix(0.1, 0, 0, -0.1, 0, 128.140001)">
    <path class="st0" d="M5.1,1273.4c-4-3-7-163-7-355v-348h975h975v270v270l-407,2l-408,3l-3,83l-3,83l-157-3l-157-3l-3-83l-3-82 l-242,2l-242,3l-3,83l-3,82h-153C80.1,1280.4,8.1,1277.4,5.1,1273.4z M268.1,1165.4v-55h-105h-105v55v55h105h105V1165.4z M1078.1,1140.4v-80h135h135v-220v-220h-240h-240v300v300h105h105V1140.4z M268.1,840.4v-220h-105h-105v220v220h105h105V840.4z M808.1,1005.4v-55h-115h-115v-25v-25h115h115v-140v-140l-243,2l-242,3l-3,52l-3,52l128,3l128,3v25v25l-127,3l-128,3v128 c0,70,3,131,7,134c3,4,114,7,245,7h238V1005.4z M1888.1,840.4v-220h-105h-105v155v155h-30h-30v-155v-155h-105h-105v220v220h240h240 V840.4z"/>
    <path class="st0" d="M1078.1,840.4v-110h25h25v110v110h-25h-25V840.4z"/>
  </g>
</svg>
