<?xml version="1.0" encoding="UTF-8" standalone="no"?>
<!-- Created with Inkscape (http://www.inkscape.org/) -->

<svg
   width="75.009377mm"
   height="53.551666mm"
   viewBox="0 0 75.009377 53.551666"
   version="1.1"
   id="svg5"
   inkscape:version="1.1.2 (b8e25be833, 2022-02-05)"
   sodipodi:docname="ISSN.svg"
   xmlns:inkscape="http://www.inkscape.org/namespaces/inkscape"
   xmlns:sodipodi="http://sodipodi.sourceforge.net/DTD/sodipodi-0.dtd"
   xmlns="http://www.w3.org/2000/svg"
   xmlns:svg="http://www.w3.org/2000/svg">
  <sodipodi:namedview
     id="namedview7"
     pagecolor="#ffffff"
     bordercolor="#666666"
     borderopacity="1.0"
     inkscape:pageshadow="2"
     inkscape:pageopacity="0.0"
     inkscape:pagecheckerboard="0"
     inkscape:document-units="mm"
     showgrid="false"
     inkscape:zoom="0.64052329"
     inkscape:cx="447.29053"
     inkscape:cy="159.2448"
     inkscape:window-width="1920"
     inkscape:window-height="1017"
     inkscape:window-x="-8"
     inkscape:window-y="-8"
     inkscape:window-maximized="1"
     inkscape:current-layer="layer1" />
  <defs
     id="defs2" />
  <g
     inkscape:label="Layer 1"
     inkscape:groupmode="layer"
     id="layer1"
     transform="translate(13.042658,-106.2339)">
    <g
       id="g1095"
       transform="matrix(0.26458333,0,0,0.26458333,-13.042658,106.20744)"
       style="fill:#8f1b59;fill-opacity:1">
      <g
         id="ISSN_x5F_LOGO"
         style="fill:#8f1b59;fill-opacity:1">
	<g
   id="g842"
   style="fill:#8f1b59;fill-opacity:1">
		<polygon
   class="st0"
   points="0,3.1 0,199.3 34,199.3 34,3.1 "
   id="polygon826"
   style="fill:#8f1b59;fill-opacity:1" />

		<g
   id="g840"
   style="fill:#8f1b59;fill-opacity:1">
			<path
   class="st0"
   d="m 106.7,0.1 c -8.9,0 -17.2,3.3 -22.9,9.8 -5.7,6.2 -8.5,14.5 -8.5,24.8 0,9.1 2,17 6,23.5 2.1,3.5 5.5,8 10.2,13.5 4.7,5.5 10.9,12.2 18.4,19.9 13.8,14.5 23.2,27.1 28.2,37.7 5,10.3 7.5,22.8 7.5,37.7 0,12 -2,22.7 -5.9,32.2 6.7,2.7 11.9,3.3 18.1,3.3 9.2,0 18.5,-3.2 23.7,-9.5 5.2,-6.4 7.8,-15 7.8,-25.9 0,-9.5 -2,-18 -6,-25.5 -2.1,-3.6 -5,-7.7 -8.7,-12.4 -3.7,-4.7 -8.3,-9.9 -13.9,-15.6 -8.6,-8.8 -15.7,-16.6 -21.4,-23.3 -5.7,-6.8 -9.9,-12.7 -12.6,-17.7 -5.2,-9.9 -7.8,-22.4 -7.8,-37.5 0,-12 1.8,-22.5 5.3,-31.6 -6.5,-3 -11.8,-3.4 -17.5,-3.4 z"
   id="path828"
   style="fill:#8f1b59;fill-opacity:1" />

			<path
   class="st0"
   d="m 182.8,0.1 c -8.9,0 -16.2,3.3 -21.9,9.8 -5.7,6.2 -8.5,14.5 -8.5,24.8 0,9.1 2,17 6,23.5 2.1,3.5 5.5,8 10.2,13.5 4.7,5.5 10.9,12.2 18.4,19.9 3.2,3.4 6.2,6.7 9,9.9 v -98.4 0 c -4.7,-2 -9.1,-3 -13.2,-3 z"
   id="path830"
   style="fill:#8f1b59;fill-opacity:1" />

			<path
   class="st0"
   d="m 67.9,199.6 c 4.8,1.9 9.4,2.9 13.9,2.9 9.2,0 17.5,-3.2 22.7,-9.5 5.2,-6.4 7.8,-15 7.8,-25.9 0,-9.5 -2,-18 -6,-25.5 -2.1,-3.6 -5,-7.7 -8.7,-12.4 -3.7,-4.7 -8.3,-9.9 -13.9,-15.6 -6,-6.2 -11.3,-11.8 -15.9,-17 v 103 z"
   id="path832"
   style="fill:#8f1b59;fill-opacity:1" />

			<g
   id="g838"
   style="fill:#8f1b59;fill-opacity:1">
				<polygon
   class="st0"
   points="228.1,3.1 283.5,127.4 283.5,3.1 "
   id="polygon834"
   style="fill:#8f1b59;fill-opacity:1" />

				<polygon
   class="st0"
   points="228,199.3 282.5,199.3 228,75.6 "
   id="polygon836"
   style="fill:#8f1b59;fill-opacity:1" />

			</g>

		</g>

	</g>

</g>
    </g>
  </g>
  <style
     type="text/css"
     id="style824">
	.st0{fill:#8F1B59;}
</style>
</svg>
