<?xml version="1.0" encoding="utf-8"?>
<!-- Generator: Adobe Illustrator 27.6.1, SVG Export Plug-In . SVG Version: 6.00 Build 0)  -->
<svg version="1.1" id="Layer_1" xmlns="http://www.w3.org/2000/svg" xmlns:xlink="http://www.w3.org/1999/xlink" x="0px" y="0px"
	 viewBox="0 0 800 800" style="enable-background:new 0 0 800 800;" xml:space="preserve">
<style type="text/css">
	.st0{fill-rule:evenodd;clip-rule:evenodd;fill:#686666;}
</style>
<g>
	<circle class="st0" cx="401.2" cy="508.3" r="64"/>
	<path class="st0" d="M613.8,365.1V213.6c0-104.2-82.3-189-183.3-189H375c-101.1,0-183.3,84.8-183.3,189v151.6
		c-27.7,40.8-43.9,90.1-43.9,143.1c0,140.8,114.2,255,255,255s255-114.2,255-255C657.8,455.2,641.5,405.9,613.8,365.1z M375,118.6
		h55.4c49.2,0,89.2,42.5,89.2,94.9v68.1c-35-18.1-74.8-28.3-116.9-28.3c-43.9,0-85.3,11.1-121.4,30.7v-70.5
		C281.4,161.2,325.8,118.6,375,118.6z M402.8,674.8c-92,0-166.5-74.5-166.5-166.5s74.5-166.5,166.5-166.5s166.5,74.5,166.5,166.5
		S494.7,674.8,402.8,674.8z"/>
</g>
</svg>
