<?xml version="1.0" encoding="utf-8"?>
<svg version="1.1" id="svg2" xmlns="http://www.w3.org/2000/svg" x="0px" y="0px" viewBox="8.582 9.51 368.79 113.544" style="enable-background:new 0 0 411.7 132.1;">
  <style type="text/css">
	.st0{fill:#FF8200;}
</style>
  <path id="path4487" class="st0" d="M198.9,121.2c-0.2-0.6-0.4-20.8-0.5-44.9l-0.1-43.9h4.6 c5,0,5.4,0.3,6,4.6c0.2,1.4,0.7,2.5,1.1,2.5c0.4,0,2.3-1.4,4.2-3.1c4.9-4.3,9.2-5.8,16.6-5.7c6.6,0.1,8.9,0.7,13.3,3.8 c6.2,4.4,9.4,12.9,9.4,25.7c0.1,16.7-5.9,28.3-17.6,33.7c-3.8,1.8-5.6,2.2-10.6,2.4c-3.7,0.2-7.5-0.1-9.8-0.6 c-2.1-0.5-4.1-0.9-4.5-0.9c-0.4,0-0.8,5.2-1,13.5l-0.3,13.6l-5.2,0.2C200.3,122.2,199.2,122.1,198.9,121.2L198.9,121.2z M228.9,86 c4.5-1.6,7.3-4.2,9.6-8.9c2.8-5.7,3.8-13.2,2.8-20.7c-1.5-11.3-6.5-16.7-14.6-15.9c-2.2,0.2-4.8,0.8-5.8,1.4 c-2.5,1.3-10.2,9.5-10.6,11.4c-0.2,0.8-0.3,8.1-0.2,16.1l0.2,14.6l3.7,1.5C218.5,87.2,224.7,87.4,228.9,86L228.9,86z M19.3,95.4 C12,93.8,10,92.7,10,90.5c0.1-2.7,1-8.2,1.5-8.7c0.2-0.2,2,0.3,4,1.1c7.7,3.3,16.4,4.3,22.6,2.6c4.1-1.1,8.2-5.6,8.8-9.5 c0.9-6-2.7-10.6-12.7-16.5c-18.6-11-23.5-16.7-23.5-27.2c0-6.9,1.5-10.7,6.1-15.3c5.9-5.9,9.5-7,21.7-7.1c8.4,0,10.6,0.2,14.7,1.5 c2.7,0.8,5,1.9,5,2.4c0.2,1.8-0.2,9.7-0.5,10.1c-0.2,0.3-1.4,0-2.8-0.6c-8.9-3.9-18.6-4.9-24.4-2.6C25,23,21.9,29,23.5,34.4 c1.1,3.8,7,9.3,15,14.1c15.9,9.5,21,15.3,21.1,24.6c0.1,6.5-1.7,10.8-6.5,15.7c-5.8,5.8-9.6,7.2-20.7,7.5 C26.6,96.3,22.4,96.1,19.3,95.4z M89.2,95.4c-9.3-3-16.1-11.5-18.3-22.9c-1-5.1-0.8-15.3,0.4-19.7c2.3-9,8.2-16.3,15.8-19.9 c3.3-1.5,5-1.9,11.1-2c8.6-0.3,13.6,0.9,17.1,4c2.6,2.2,4,5.9,3.6,9.1c-0.2,2-0.3,2-4.8,2.2l-4.6,0.2l-1.1-2.4 c-1.5-3.2-3.8-4-10.6-3.7c-6.4,0.3-8.2,1.3-11.6,6.2c-3.1,4.6-4.1,9.1-3.8,17.7c0.2,6.9,0.4,7.9,2.5,12.1 c4.5,9.1,12.5,12.5,22.6,9.6c2-0.6,5-1.8,6.6-2.8s3.2-1.4,3.5-1.1c0.3,0.3,0.7,2.4,0.8,4.6c0.2,3.9,0.2,4.1-2.1,5.6 c-3.8,2.6-8.7,3.8-16.7,4C94.5,96.3,91.4,96.1,89.2,95.4z M145.1,95.5c-9.1-2.9-16.2-10.6-18.9-20.9c-1.3-5-1.3-17.6,0.1-22.2 c2.7-9.2,7.4-15,15-18.8l5.2-2.6h8.8c8.2,0,9.1,0.1,12.7,1.8c7.1,3.3,12.6,9.8,15.2,18c1.6,5.1,2,16.6,0.7,22.1 c-2.8,11.7-10.3,19.7-21,22.6C158.6,96.7,148.9,96.6,145.1,95.5L145.1,95.5z M163.5,85.2c5.5-2.8,9.4-12.2,9.3-22 c-0.1-8.4-2.1-14.2-6.2-18.3c-3.6-3.6-6.4-4.7-12.4-4.7c-8.8,0-13.7,4.6-16.5,15.8c-1.3,5-0.9,13.1,0.8,18.7 c1.3,4.3,6.7,10.2,10.5,11.4C152.6,87.3,160.3,86.8,163.5,85.2z M277.9,95.3c-4.1-1.4-7.8-5.3-9.3-9.8c-1.1-3.3-1.3-6-1.3-28.4V32.4 l5.2-0.2c4.9-0.2,5.2-0.1,5.6,1.4c0.2,0.9,0.4,11,0.4,22.6c0,12.6,0.3,22,0.7,23.6c0.4,1.4,1.6,3.5,2.6,4.7c1.6,1.8,2.5,2.2,5.6,2.4 c6.2,0.5,10.7-1.2,14.4-5.4c5.9-6.7,5.8-6.3,5.8-29.2V32h5c2.8,0,5.2,0.2,5.4,0.5c0.2,0.3,0.4,14.4,0.5,31.4l0.2,30.8l-3.9,0.2 c-4.6,0.2-5.7-0.4-6.2-4c-0.6-3.6-1.4-3.9-3.7-1c-1.1,1.3-3.9,3.3-6.1,4.5c-3.9,1.9-4.7,2.1-11,2C283.4,96.4,279.7,95.9,277.9,95.3 L277.9,95.3z M342.9,95.5c-4.5-1.2-8-3.1-8.4-4.4c-0.4-1.2,0.5-8,1.2-8.7c0.2-0.2,2.7,0.7,5.5,2.1c8.5,4.2,17.9,4.1,22.2-0.3 c1.6-1.6,1.9-2.5,1.9-5.1c0-2.8-0.3-3.5-2.6-5.7c-1.4-1.4-5.6-3.9-9.3-5.7c-8.9-4.3-13.9-7.8-16.3-11.4c-1.7-2.5-2-3.8-2.2-8 c-0.2-4.3,0-5.5,1.4-8.1c2.1-3.9,6.3-7.1,11.1-8.5c5.7-1.7,17.5-1.1,22.9,1.1l4.1,1.7l0.2,4.1c0.3,6.1-0.2,6.5-5.5,3.8 c-5.1-2.6-13.3-3.6-17.6-2.1c-3,1-5.9,4.3-5.9,6.7c0,4.2,3.1,6.8,14.6,12.4c12.5,6,17.4,12.3,16.4,20.9c-0.8,6.8-5.3,12.3-12.3,14.9 c-3.1,1.2-5.3,1.4-11.1,1.4C349.2,96.3,344.5,95.9,342.9,95.5L342.9,95.5z"/>
</svg>
