<svg xmlns:rdf="http://www.w3.org/1999/02/22-rdf-syntax-ns#" xmlns="http://www.w3.org/2000/svg" xml:space="preserve" height="82.90873" width="74" version="1.1" xmlns:cc="http://creativecommons.org/ns#" xmlns:dc="http://purl.org/dc/elements/1.1/">
	<metadata>
		<rdf:RDF>
			<cc:Work rdf:about="">
				<dc:format>image/svg+xml</dc:format>
				<dc:type rdf:resource="http://purl.org/dc/dcmitype/StillImage"/>
				<dc:title/>
			</cc:Work>
		</rdf:RDF>
	</metadata>
	<g transform="matrix(1.25,0,0,-1.25,1.9812512,80.908729)">
		<g transform="matrix(2.4003568,0,0,2.4003568,-0.02100395,0)">
			<g clip-path="url(#clipPath16)">
				<g transform="translate(7.271,19.078)">
					<path fill-rule="nonzero" fill="#0c2850" d="M0,0-1.6196-0.864-1.7275,0.468-0.0357,0.648,0,0zm-4.1392-3.996c0.0362-0.467-0.0361-1.188-0.2881-1.547l-0.7558,0.288c0.2519,0.359,0.396,0.863,0.396,1.295l0.6479-0.036zm15.0102-7.955c2.087,8.603-0.36,15.443-7.019,16.235,0.036-0.361,0.036-0.648,0.036-0.936,0-0.432-0.036-0.792-0.036-0.792l-1.044,0.18c0.036,0.36,0.108,2.807-0.7563,3.347,0,0,0-1.295-0.2875-2.591l-0.9722,0.179c0,0.9-0.396,1.26-0.9356,1.512l0.252-1.764-0.6123-0.899,0.2881-0.828-1.9077-0.648-0.5401-1.548-3.3476-4.607,1.2602-1.512,1.4038,1.187,0.3238-0.215v-1.764h0.7558c0.3242,1.26,1.3677,2.736,2.3399,3.455l-0.5401,0.648,0.792,0.685,0.7559-0.937,2.6999,0.037c0.396,0.863,0.648,1.907,0.648,3.131h1.044c0-4.104-2.052-5.723-4.6077-8.243-0.9361-0.9357-1.7642-1.944-1.8721-3.312h11.8788zm2.591-1.007-16.9894,0,0,1.043,1.44,0c0.252,3.384,3.4912,4.644,5.2914,7.379h-2.0878c-1.0078-0.36-2.52-2.591-2.52-3.887h-2.6274l0.0361,1.08-0.8643-0.72-2.3037,2.664s-0.1079,0.144-0.1079,0.252c0,0.107,0.0361,0.18,0.0361,0.18l3.6358,4.931,0.6474,1.944,0.9722,0.36,1.0078,1.403-0.3599,2.448c0.9717,0.36,1.9078,0.036,2.3755-0.431,0.0362,0.719-0.0356,1.511-0.0356,1.511,1.7277,0.18,2.3397-0.756,2.6277-1.8,0.467-0.036,0.9-0.107,1.296-0.18,0.071,0.216,0.288,0.396,0.54,0.396,0.323,0,0.539-0.252,0.539-0.54v-0.144c0.757-0.252,1.476-0.612,2.124-1.008,0.108,0.144,0.252,0.217,0.432,0.217,0.324,0,0.54-0.252,0.54-0.54,0-0.144-0.036-0.252-0.108-0.325,0.612-0.504,1.116-1.115,1.584-1.763,0.072,0.036,0.18,0.072,0.252,0.072,0.324,0,0.576-0.252,0.576-0.54,0-0.216-0.108-0.396-0.288-0.468,0.36-0.648,0.647-1.368,0.864-2.124,0.036,0.036,0.108,0.036,0.144,0.036,0.324,0,0.539-0.252,0.539-0.54s-0.179-0.504-0.395-0.54c0.143-0.756,0.252-1.512,0.324-2.304,0.323,0,0.575-0.251,0.575-0.54,0-0.323-0.252-0.539-0.539-0.575,0-0.756-0.036-1.584-0.108-2.376,0.287-0.036,0.504-0.288,0.504-0.576s-0.252-0.5399-0.576-0.5399h-0.037c-0.143-0.7921-0.287-1.5831-0.467-2.4121h1.511v-1.043"/>
				</g>
			</g>
			<path fill-rule="nonzero" fill="#f36717" d="m3.7437,0.792,16.99,0,0,2.0879-16.99,0,0-2.0879z"/>
		</g>
	</g>
</svg>