<?xml version="1.0" encoding="UTF-8" standalone="no"?>
<svg
   xmlns:dc="http://purl.org/dc/elements/1.1/"
   xmlns:cc="http://creativecommons.org/ns#"
   xmlns:rdf="http://www.w3.org/1999/02/22-rdf-syntax-ns#"
   xmlns:svg="http://www.w3.org/2000/svg"
   xmlns="http://www.w3.org/2000/svg"
   xmlns:sodipodi="http://sodipodi.sourceforge.net/DTD/sodipodi-0.dtd"
   xmlns:inkscape="http://www.inkscape.org/namespaces/inkscape"
   width="40"
   height="40"
   id="svg2"
   version="1.1"
   inkscape:version="0.91 r13725"
   sodipodi:docname="Taylor and Francis.svg">
  <defs
     id="defs17" />
  <sodipodi:namedview
     pagecolor="#ffffff"
     bordercolor="#666666"
     borderopacity="1"
     objecttolerance="10"
     gridtolerance="10"
     guidetolerance="10"
     inkscape:pageopacity="0"
     inkscape:pageshadow="2"
     inkscape:window-width="1366"
     inkscape:window-height="700"
     id="namedview15"
     showgrid="false"
     inkscape:zoom="11.8"
     inkscape:cx="26.954674"
     inkscape:cy="22.045088"
     inkscape:window-x="-4"
     inkscape:window-y="-4"
     inkscape:window-maximized="1"
     inkscape:current-layer="g5" />
  <metadata
     id="metadata7">image/svg+xml<rdf:RDF>
  <cc:Work
     rdf:about="">
    <dc:format>image/svg+xml</dc:format>
    <dc:type
       rdf:resource="http://purl.org/dc/dcmitype/StillImage" />
    <dc:title></dc:title>
    <cc:license
       rdf:resource="http://creativecommons.org/licenses/by-sa/3.0/" />
  </cc:Work>
  <cc:License
     rdf:about="http://creativecommons.org/licenses/by-sa/3.0/">
    <cc:permits
       rdf:resource="http://creativecommons.org/ns#Reproduction" />
    <cc:permits
       rdf:resource="http://creativecommons.org/ns#Distribution" />
    <cc:requires
       rdf:resource="http://creativecommons.org/ns#Notice" />
    <cc:requires
       rdf:resource="http://creativecommons.org/ns#Attribution" />
    <cc:permits
       rdf:resource="http://creativecommons.org/ns#DerivativeWorks" />
    <cc:requires
       rdf:resource="http://creativecommons.org/ns#ShareAlike" />
  </cc:License>
</rdf:RDF>
</metadata>
  <g
     id="g5">
    <title
       id="title7">Layer 1</title>
    <g
       id="g3211"
       style="fill:#1b127b;fill-opacity:1">
      <path
         fill="#3f3f3f"
         d="m19.95307,0.645561c-10.714806,0 -19.400864,8.686065 -19.400864,19.400865c0,10.714809 8.686058,19.400877 19.400864,19.400877c10.714806,0 19.400869,-8.686068 19.400869,-19.400877c0,-10.714801 -8.686064,-19.400865 -19.400869,-19.400865zm0,1.773193c9.735497,0 17.627676,7.892182 17.627676,17.627673c0,9.735516 -7.892179,17.627684 -17.627676,17.627684c-9.735497,0 -17.627671,-7.892168 -17.627671,-17.627684c0,-9.735476 7.892174,-17.627673 17.627671,-17.627673z"
         id="path3798"
         style="fill:#1b127b;fill-opacity:1" />
      <path
         fill="#ff0000"
         d="m34.095821,19.650778l-4.001997,1.071991l-20.571,0l0,-0.520992l-2.712005,0l0,0.520992l-0.606995,0l0.710999,1.565006l3.234001,0c1.897994,3.527006 5.678001,5.967999 9.963997,5.967999c2.975998,0 5.681,-1.153992 7.693008,-3.040997c2.059998,0.061005 3.388,-0.664993 4.330992,-1.643007c1.580994,-1.638 1.959,-3.920992 1.959,-3.920992zm-1.261002,1.151001c-0.986998,2.685989 -2.867994,3.386993 -4.218,3.565006c0.762009,-0.879017 1.389999,-1.879017 1.852005,-2.966003l2.365995,-0.599003z"
         id="path2998"
         style="fill:#1b127b;fill-opacity:1" />
      <path
         fill="#3f3f3f"
         id="path3012"
         d="m7.097395,17.685173c0,-1.21254 0.97786,-3.71588 0.97786,-3.71588c0,0 0.977866,2.503341 0.977866,3.71588c0,1.212572 -0.456337,1.460281 -0.977866,1.460281c-0.521531,0 -0.97786,-0.247709 -0.97786,-1.460281z"
         style="fill:#1b127b;fill-opacity:1" />
      <path
         fill="#3f3f3f"
         d="m13.724066,18.015739l0.44004,0.935486l12.01146,0l0.394409,-0.935486l-12.845909,0zm0.635604,1.352709l0.440042,0.935497l10.808685,0l0.391144,-0.935497l-11.639871,0z"
         id="rect3786"
         style="fill:#1b127b;fill-opacity:1" />
      <path
         fill="#3f3f3f"
         d="m20.04434,17.202765c-0.130386,-2.046995 2.086105,-4.771986 2.086105,-4.771986c-2.803215,1.147369 -3.187836,2.255615 -3.187836,3.187852c0,0.93222 1.10173,1.584134 1.10173,1.584134z"
         id="path3794"
         style="fill:#1b127b;fill-opacity:1" />
    </g>
  </g>
</svg>
