<?xml version="1.0" encoding="utf-8"?>
<!-- Generator: Adobe Illustrator 27.6.1, SVG Export Plug-In . SVG Version: 6.00 Build 0)  -->
<svg version="1.1" id="Layer_1" xmlns="http://www.w3.org/2000/svg" xmlns:xlink="http://www.w3.org/1999/xlink" x="0px" y="0px"
	 viewBox="0 0 800 800" style="enable-background:new 0 0 800 800;" xml:space="preserve">
<style type="text/css">
	.st0{fill-rule:evenodd;clip-rule:evenodd;fill:#686666;}
</style>
<g>
	<circle class="st0" cx="313" cy="520" r="64"/>
	<path class="st0" d="M616.7,23.5h-8.3c-101.1,0-183.3,84.8-183.3,189v77.6C391.6,274,354.1,265,314.5,265
		c-140.8,0-255,114.2-255,255s114.2,255,255,255s255-114.2,255-255c0-59.7-20.5-114.5-54.8-158V212.6c0-52.3,44.4-94.9,93.6-94.9
		h8.3c49.2,0,89.2,42.5,89.2,94.9v135.7H800V212.6C800,108.3,717.7,23.5,616.7,23.5z M314.5,686.5C222.5,686.5,148,612,148,520
		s74.5-166.5,166.5-166.5S481,428,481,520S406.5,686.5,314.5,686.5z"/>
</g>
</svg>
