<?xml version="1.0" encoding="utf-8"?>
<svg version="1.1" id="svg2965" xmlns="http://www.w3.org/2000/svg" x="0px" y="0px" viewBox="0 -0.338 287.662 41.679" style="enable-background:new 0 0 300 31.2;">
  <g id="g4432" transform="matrix(0.75,0,0,0.75,-11.25,-11.25)">
    <path id="path4278" d="M15,15.7h8.6l6.2,28.8h0.1l7.7-28.8h8.3l7.7,28.8h0L60,15.7h8.1l-9.8,40.2h-9.2L41.6,27l-7.4,28.9h-9.2 L15,15.7z"/>
    <path id="path4298" d="M82.2,56.6c-2.6,0-5-0.6-7-1.7c-2.1-1.2-3.7-2.8-4.9-5c-1.2-2.1-1.8-4.5-1.8-7.1c0-2.6,0.6-5,1.7-7.1 c1.2-2.1,2.8-3.8,4.9-5c2.1-1.2,4.4-1.8,7-1.8c2.5,0,4.8,0.6,6.9,1.7c2.1,1.1,3.7,2.9,5,5.2c1.3,2.4,1.9,5.3,1.9,8.8v0.3H76.4 c0.2,1.5,0.8,2.7,1.9,3.7c1.1,1,2.5,1.5,4.1,1.5c1.1,0,2.1-0.2,3.1-0.7c0.9-0.5,1.7-1.1,2.2-2l7.7,0.8c-1.1,2.8-2.8,4.8-5.1,6.2 C87.9,55.9,85.3,56.6,82.2,56.6z M87.9,39.9c-0.2-1.4-0.8-2.5-1.9-3.4c-1.1-0.9-2.4-1.4-3.9-1.4c-1.5,0-2.8,0.4-3.9,1.3 c-1.1,0.9-1.8,2.1-2.1,3.5H87.9z"/>
    <path id="path4294" d="M115.9,56.6c-1.8,0-3.4-0.4-4.9-1.1c-1.5-0.8-2.6-1.7-3.3-2.8v3.3h-7.4V15.7h7.4v13l0,3c0,0.4,0,0.9,0,1.3 c0.6-1.2,1.7-2.2,3.2-2.9c1.5-0.8,3.2-1.1,5.1-1.1c2.4,0,4.5,0.6,6.4,1.8c2,1.2,3.5,2.8,4.6,5c1.1,2.1,1.7,4.4,1.7,7.1 c0,2.6-0.6,5-1.7,7.1c-1.1,2.1-2.7,3.8-4.6,5C120.5,56,118.3,56.6,115.9,56.6L115.9,56.6z M114.3,49.9c2,0,3.6-0.7,4.8-2.1 c1.3-1.4,1.9-3.1,1.9-5.1c0-2-0.6-3.7-1.9-5.1c-1.3-1.4-2.9-2.1-4.8-2.1c-1.9,0-3.5,0.7-4.8,2.1c-1.3,1.4-1.9,3.1-1.9,5.1 c0,2,0.6,3.7,1.9,5.1C110.8,49.2,112.4,49.9,114.3,49.9z"/>
    <path id="path4258" d="M157.4,56.6c-2.6,0-4.9-0.6-7.1-1.7c-2.1-1.2-3.8-2.8-5.1-5c-1.2-2.1-1.8-4.5-1.8-7.1c0-2.6,0.6-5,1.8-7.1 c1.3-2.1,3-3.8,5.1-5c2.2-1.2,4.5-1.8,7.1-1.8c2.6,0,4.9,0.6,7.1,1.8c2.2,1.2,3.9,2.8,5.1,5c1.3,2.1,1.9,4.4,1.9,7.1 c0,2.6-0.6,5-1.9,7.1c-1.2,2.1-2.9,3.8-5.1,5C162.3,56,159.9,56.6,157.4,56.6z M157.4,49.9c1.9,0,3.5-0.7,4.7-2 c1.2-1.3,1.8-3.1,1.8-5.1c0-2-0.6-3.7-1.8-5.1c-1.2-1.4-2.8-2.1-4.7-2.1s-3.5,0.7-4.7,2.1c-1.2,1.4-1.8,3.1-1.8,5.1 c0,2.1,0.6,3.8,1.8,5.1C153.9,49.2,155.4,49.9,157.4,49.9z"/>
    <path id="path4266" d="M178,35.9h-4.1v-6.3h4.1v-7.4c0-2.4,0.7-4.1,2-5.2c1.4-1.1,3.2-1.7,5.4-1.7c1.3,0,3.1,0.1,5.4,0.4v6.8 c-1.6-0.2-2.6-0.3-3.1-0.3c-0.8,0-1.4,0.2-1.8,0.5c-0.4,0.3-0.6,0.9-0.6,1.7v5.3h5.1v6.3h-5.1v19.9H178V35.9z"/>
    <path id="path4250" d="M217.2,56.6c-2.9,0-5.6-0.5-7.9-1.5c-2.3-1-4.5-2.5-6.5-4.5l4.4-6c1.4,1.5,3,2.7,4.8,3.5 c1.8,0.8,3.4,1.2,5,1.2c1.7,0,3-0.4,4-1.2s1.5-1.9,1.5-3.1c0-1.3-0.5-2.3-1.5-3.2c-1-0.9-2.6-1.9-4.8-2.8l-2.8-1.3 c-5.9-2.8-8.8-6.5-8.8-11.3c0-2.2,0.6-4.2,1.8-5.9c1.2-1.7,2.8-3.1,4.9-4c2-0.9,4.3-1.4,6.7-1.4c2.3,0,4.5,0.5,6.8,1.6 c2.3,1,4.4,2.4,6.4,4.1l-4.6,5.7c-1.3-1.3-2.6-2.3-4.1-3c-1.5-0.7-2.9-1.1-4.3-1.1c-1.4,0-2.6,0.4-3.6,1.1c-1,0.7-1.5,1.6-1.5,2.7 c0,1,0.3,1.8,1,2.6c0.7,0.7,1.8,1.5,3.4,2.2l3.3,1.5c3.4,1.6,6,3.4,7.7,5.2c1.7,1.9,2.5,4.3,2.5,7.1c0,2.1-0.6,4-1.7,5.8 c-1.1,1.8-2.7,3.3-4.8,4.4C222.5,56,220,56.6,217.2,56.6L217.2,56.6z"/>
    <path id="path4274" d="M248.4,56.6c-2.6,0-4.9-0.6-7-1.7c-2.1-1.2-3.8-2.8-5.1-5c-1.2-2.1-1.8-4.5-1.8-7.1c0-2.6,0.6-5,1.8-7.1 c1.3-2.1,3-3.8,5.1-5c2.1-1.2,4.5-1.8,7-1.8c3,0,5.7,0.8,8,2.3c2.4,1.6,4,3.6,4.8,6.2l-7,2.2c-0.5-1.2-1.3-2.2-2.3-2.9 c-1-0.7-2.2-1.1-3.5-1.1c-1.9,0-3.5,0.7-4.7,2.1c-1.2,1.4-1.8,3.1-1.8,5.1c0,2.1,0.6,3.8,1.8,5.1c1.2,1.4,2.8,2,4.7,2 c1.3,0,2.5-0.3,3.5-1.1c1-0.7,1.8-1.7,2.3-2.9l7,2.2c-0.9,2.6-2.5,4.7-4.8,6.2C254.1,55.8,251.4,56.6,248.4,56.6L248.4,56.6z"/>
    <path id="path4270" d="M267.2,35.9h-3.7v-6.3h11.1v26.3h-7.4V35.9z M270.6,25.3c-1.3,0-2.4-0.5-3.4-1.4c-0.9-0.9-1.4-2-1.4-3.4 c0-1.3,0.5-2.4,1.4-3.4c0.9-0.9,2.1-1.4,3.4-1.4c1.3,0,2.5,0.5,3.4,1.4c0.9,1,1.4,2.1,1.4,3.4c0,1.4-0.5,2.5-1.4,3.4 C273,24.8,271.9,25.3,270.6,25.3z"/>
    <path id="path4290" d="M293.2,56.6c-2.6,0-5-0.6-7-1.7c-2.1-1.2-3.7-2.8-4.9-5c-1.2-2.1-1.8-4.5-1.8-7.1c0-2.6,0.6-5,1.7-7.1 c1.2-2.1,2.8-3.8,4.9-5c2.1-1.2,4.4-1.8,7-1.8c2.5,0,4.8,0.6,6.9,1.7c2.1,1.1,3.7,2.9,5,5.2c1.3,2.4,1.9,5.3,1.9,8.8v0.3h-19.5 c0.2,1.5,0.8,2.7,1.9,3.7c1.1,1,2.5,1.5,4.1,1.5c1.1,0,2.1-0.2,3.1-0.7c0.9-0.5,1.7-1.1,2.2-2l7.7,0.8c-1.1,2.8-2.8,4.8-5.1,6.2 C298.9,55.9,296.2,56.6,293.2,56.6L293.2,56.6z M298.9,39.9c-0.2-1.4-0.8-2.5-1.9-3.4c-1.1-0.9-2.4-1.4-3.9-1.4 c-1.5,0-2.8,0.4-3.9,1.3c-1.1,0.9-1.8,2.1-2.1,3.5H298.9z"/>
    <path id="path4282" d="M311.2,29.6h7.3v1.1c0,0.6,0,1.3-0.1,2.1c1-1.2,2.2-2.2,3.6-2.8c1.4-0.7,2.9-1,4.5-1c2.9,0,5.2,0.9,7,2.6 c1.8,1.7,2.7,4.1,2.7,7.2v17.2h-7.4V40.6c0-1.6-0.4-2.7-1.3-3.5c-0.9-0.8-1.9-1.2-3.2-1.2c-1.1,0-2.1,0.3-3,0.8 c-0.9,0.5-1.8,1.2-2.5,2.2v17.1h-7.4L311.2,29.6z"/>
    <path id="path4286" d="M354.7,56.6c-2.6,0-4.9-0.6-7-1.7c-2.1-1.2-3.8-2.8-5.1-5c-1.2-2.1-1.8-4.5-1.8-7.1c0-2.6,0.6-5,1.8-7.1 c1.3-2.1,3-3.8,5.1-5c2.1-1.2,4.5-1.8,7-1.8c3,0,5.7,0.8,8,2.3c2.4,1.6,4,3.6,4.8,6.2l-7,2.2c-0.5-1.2-1.3-2.2-2.3-2.9 s-2.2-1.1-3.5-1.1c-1.9,0-3.5,0.7-4.7,2.1c-1.2,1.4-1.8,3.1-1.8,5.1c0,2.1,0.6,3.8,1.8,5.1c1.2,1.4,2.8,2,4.7,2 c1.3,0,2.5-0.3,3.5-1.1c1-0.7,1.8-1.7,2.3-2.9l7,2.2c-0.9,2.6-2.5,4.7-4.8,6.2C360.4,55.8,357.7,56.6,354.7,56.6z"/>
    <path id="path4254" d="M384,56.6c-2.6,0-5-0.6-7-1.7c-2.1-1.2-3.7-2.8-4.9-5c-1.2-2.1-1.8-4.5-1.8-7.1c0-2.6,0.6-5,1.7-7.1 c1.2-2.1,2.8-3.8,4.9-5c2.1-1.2,4.4-1.8,7-1.8c2.5,0,4.8,0.6,6.9,1.7c2.1,1.1,3.7,2.9,5,5.2c1.3,2.4,1.9,5.3,1.9,8.8v0.3h-19.5 c0.2,1.5,0.8,2.7,1.9,3.7c1.1,1,2.5,1.5,4.1,1.5c1.1,0,2.1-0.2,3.1-0.7c0.9-0.5,1.7-1.1,2.2-2l7.7,0.8c-1.1,2.8-2.8,4.8-5.1,6.2 C389.7,55.9,387.1,56.6,384,56.6L384,56.6z M389.7,39.9c-0.2-1.4-0.8-2.5-1.9-3.4c-1.1-0.9-2.4-1.4-3.9-1.4c-1.5,0-2.8,0.4-3.9,1.3 c-1.1,0.9-1.8,2.1-2.1,3.5H389.7z"/>
  </g>
</svg>
